<svg width="65" height="65" viewBox="0 0 65 65" fill="none" xmlns="http://www.w3.org/2000/svg">
<path d="M1 1H64V64H1V1Z" stroke="#7A9CA5" stroke-width="2"/>
<path d="M36.0504 26C37.0272 26.1906 37.9248 26.6683 38.6285 27.3719C39.3322 28.0756 39.8099 28.9733 40.0004 29.95M36.0504 22C38.0797 22.2254 39.972 23.1342 41.4167 24.577C42.8613 26.0198 43.7724 27.911 44.0004 29.94M43.0004 37.92V40.92C43.0016 41.1985 42.9445 41.4742 42.8329 41.7293C42.7214 41.9845 42.5577 42.2136 42.3525 42.4019C42.1473 42.5901 41.905 42.7335 41.6412 42.8227C41.3773 42.9119 41.0978 42.9451 40.8204 42.92C37.7433 42.5856 34.7874 41.5341 32.1904 39.85C29.7743 38.3147 27.7258 36.2662 26.1904 33.85C24.5004 31.2412 23.4487 28.271 23.1204 25.18C23.0954 24.9035 23.1283 24.6248 23.2169 24.3616C23.3055 24.0985 23.448 23.8567 23.6352 23.6516C23.8224 23.4466 24.0502 23.2827 24.3042 23.1705C24.5582 23.0583 24.8328 23.0003 25.1104 23H28.1104C28.5957 22.9952 29.0662 23.1671 29.4342 23.4835C29.8022 23.8 30.0425 24.2394 30.1104 24.72C30.237 25.6801 30.4719 26.6227 30.8104 27.53C30.945 27.8879 30.9741 28.2769 30.8943 28.6509C30.8146 29.0248 30.6293 29.3681 30.3604 29.64L29.0904 30.91C30.514 33.4135 32.5869 35.4864 35.0904 36.91L36.3604 35.64C36.6323 35.3711 36.9756 35.1858 37.3495 35.1061C37.7235 35.0263 38.1125 35.0555 38.4704 35.19C39.3777 35.5285 40.3204 35.7634 41.2804 35.89C41.7662 35.9585 42.2098 36.2032 42.527 36.5775C42.8441 36.9518 43.0126 37.4296 43.0004 37.92Z" stroke="#141414" stroke-width="2" stroke-linecap="round" stroke-linejoin="round"/>
</svg>
