<svg width="100" height="100" viewBox="0 0 100 100" fill="none" xmlns="http://www.w3.org/2000/svg">
<rect x="0.5" y="0.5" width="99" height="99" fill="#F2FCFF" stroke="#1E2C30"/>
<path d="M56.3 57.6064C55.8978 57.155 55.206 57.117 54.7546 57.5192C54.095 58.1084 52.4413 58.7018 50.2335 58.7018C48.0242 58.7018 46.3705 58.107 45.7124 57.5192C45.261 57.117 44.5691 57.155 44.1669 57.6064C43.7647 58.0564 43.8027 58.7483 44.2541 59.1518C45.4733 60.2417 47.7092 60.8914 50.2335 60.8914C52.7591 60.8914 54.9936 60.2417 56.2128 59.1518C56.6642 58.7483 56.7036 58.0578 56.3 57.6064Z" fill="#5C8692"/>
<path d="M47.6447 47.9594C47.2369 47.5123 46.545 47.4813 46.0992 47.8891C45.7828 48.1774 44.9039 48.4882 43.7213 48.4882C42.5386 48.4882 41.6597 48.1774 41.3433 47.8891C40.8961 47.4813 40.2042 47.5137 39.7978 47.9594C39.39 48.4066 39.4223 49.0985 39.8681 49.5049C40.6725 50.239 42.1125 50.6763 43.7213 50.6763C45.33 50.6763 46.7714 50.239 47.5744 49.5049C48.0202 49.0985 48.0525 48.4052 47.6447 47.9594Z" fill="#5C8692"/>
<path d="M48.6971 42.8281C47.6719 42.1629 45.8129 41.7664 43.7218 41.7664C41.6307 41.7664 39.7702 42.1629 38.7465 42.8281C38.2402 43.1571 38.0954 43.835 38.4244 44.3412C38.634 44.6632 38.9855 44.839 39.3427 44.839C39.5466 44.839 39.7533 44.7814 39.9376 44.6618C40.4818 44.3089 41.8627 43.9531 43.7218 43.9531C45.5808 43.9531 46.9618 44.3089 47.506 44.6618C48.0137 44.9909 48.6915 44.8475 49.0191 44.3398C49.3482 43.835 49.2048 43.1571 48.6971 42.8281Z" fill="#5C8692"/>
<path d="M60.6701 47.9594C60.2623 47.5123 59.5704 47.4813 59.1246 47.8891C58.8082 48.1774 57.9293 48.4882 56.7466 48.4882C55.564 48.4882 54.6851 48.1774 54.3687 47.8891C53.9229 47.4813 53.2296 47.5137 52.8232 47.9594C52.4154 48.4066 52.4477 49.0985 52.8935 49.5049C53.6979 50.239 55.1379 50.6763 56.7466 50.6763C58.3554 50.6763 59.7954 50.239 60.5998 49.5049C61.047 49.0985 61.0779 48.4052 60.6701 47.9594Z" fill="#5C8692"/>
<path d="M61.7233 42.8281C60.6981 42.1629 58.839 41.7664 56.7466 41.7664C54.6555 41.7664 52.795 42.1629 51.7712 42.8281C51.2636 43.1571 51.1201 43.835 51.4492 44.3412C51.7783 44.8475 52.4561 44.9923 52.9637 44.6632C53.508 44.3103 54.8889 43.9545 56.748 43.9545C58.607 43.9545 59.988 44.3103 60.5322 44.6632C60.7164 44.7828 60.9231 44.8404 61.127 44.8404C61.4856 44.8404 61.8358 44.6646 62.0453 44.3426C62.3744 43.835 62.2295 43.1571 61.7233 42.8281Z" fill="#5C8692"/>
<path d="M71.4402 78.575C69.508 76.9325 66.8727 76.0283 64.0208 76.0283C60.2675 76.0283 57.6716 75.1916 56.5789 74.757V69.7958C62.2053 67.7553 66.5788 63.0838 68.2058 57.2745C71.7284 56.833 74.4664 53.8138 74.4664 50.18C74.4664 46.8205 72.0898 43.9334 68.8948 43.205V40.782C70.1591 36.3509 70.0803 31.9986 69.7864 29.1144C69.6191 27.4663 69.3659 26.1106 69.1831 25.2641C69.013 24.478 68.9033 24.0533 68.8217 23.8072C68.8048 23.7425 68.7837 23.6792 68.7542 23.6173C67.542 21.0481 65.3862 18.8586 62.6272 17.2175C62.5709 17.1767 62.5119 17.143 62.45 17.1134C59.0595 15.1461 54.7831 14 50.2339 14C46.6522 14 43.1492 14.7088 40.1047 16.0489C39.552 16.2922 39.3003 16.9377 39.5436 17.4917C39.7869 18.0444 40.4323 18.2961 40.9864 18.0528C43.7553 16.8336 46.9531 16.1895 50.2339 16.1895C53.8634 16.1895 57.2863 16.97 60.1241 18.3369C58.7938 19.4816 57.2103 20.5841 55.3175 21.6823C54.7944 21.9861 54.6172 22.6555 54.9209 23.1786C55.1234 23.5287 55.4905 23.7242 55.8687 23.7242C56.0558 23.7242 56.2442 23.6764 56.4172 23.5766C58.7094 22.2463 60.5895 20.8991 62.142 19.4745C64.0405 20.7177 65.5522 22.2659 66.5141 24.0392C66.4761 24.0997 66.4367 24.1587 66.3973 24.2192C66.3706 24.2586 66.3439 24.2994 66.3172 24.3387C63.9209 27.8291 58.8359 31.1731 51.4798 34.0967C51.4363 34.1136 51.3913 34.1305 51.3477 34.1488C51.1873 34.212 51.027 34.2753 50.8653 34.3372C43.5486 37.1637 36.0856 38.8245 33.4559 39.3631C32.8583 36.9402 32.6698 34.5495 32.6909 32.4134C33.6008 32.2306 34.5064 31.9691 35.3909 31.7145C36.0842 31.5134 36.8014 31.3067 37.4933 31.1464C37.5045 31.1436 37.5158 31.1408 37.527 31.138C42.0256 29.9469 46.4525 28.3381 51.882 25.9208C52.4347 25.6747 52.6822 25.0278 52.4361 24.4766C52.19 23.9253 51.5431 23.6764 50.9919 23.9225C45.6805 26.2878 41.3591 27.86 36.9842 29.0188C36.2403 29.1917 35.4992 29.4055 34.7834 29.6122C34.0986 29.8105 33.4377 30.0003 32.7908 30.1522C33.0284 27.095 33.6106 24.8984 33.7273 24.478C34.4853 22.9072 35.6834 21.4798 37.2908 20.2311C37.7689 19.8613 37.8547 19.1736 37.4848 18.6955C37.1136 18.2188 36.4273 18.1316 35.9492 18.5014C34.0409 19.9836 32.615 21.7048 31.7108 23.6202C31.6883 23.6694 31.6686 23.7186 31.6531 23.7706C31.5491 24.1152 29.1402 32.2728 31.5702 40.7862V43.2092C28.378 43.9334 26 46.8219 26 50.1814C26 53.8152 28.7394 56.8344 32.2606 57.2759C33.8877 63.0852 38.2625 67.7567 43.8875 69.7972V74.7584C42.792 75.1944 40.1975 76.0311 36.4456 76.0311C33.5937 76.0311 30.9598 76.9353 29.0263 78.5778C27.0758 80.2344 26 82.483 26 84.9059C26 85.5106 26.4894 86 27.0941 86H73.3737C73.9784 86 74.4678 85.5106 74.4678 84.9059C74.4678 82.483 73.392 80.2344 71.4402 78.575ZM68.7148 54.8361C68.833 53.9783 68.8948 53.112 68.8948 52.2472V45.4775C70.8636 46.1441 72.2783 48.0228 72.2783 50.1814C72.2783 52.4328 70.7637 54.3453 68.7008 54.9472C68.7064 54.9106 68.7106 54.8727 68.7148 54.8361ZM28.1881 50.1814C28.1881 48.0228 29.6028 46.1441 31.5716 45.4775V52.2472C31.5716 53.1134 31.6334 53.9783 31.7516 54.8361C31.7572 54.8727 31.76 54.9106 31.7656 54.9472C29.7027 54.3439 28.1881 52.4328 28.1881 50.1814ZM66.9219 27.1048C66.9472 27.0767 66.9725 27.0472 66.9978 27.0191C67.0667 26.9403 67.1342 26.8616 67.2003 26.7828C67.213 26.7673 67.227 26.7519 67.2397 26.7378C67.7361 29.5039 68.2423 34.3681 67.0105 39.3617C64.8322 38.9159 59.3323 37.7038 53.3642 35.6942C59.6178 33.1067 64.1558 30.2323 66.9219 27.1048ZM34.0241 55.1877C34.0227 55.1764 34.0198 55.1638 34.017 55.1525C33.8441 54.1948 33.7611 53.2203 33.7611 52.2472V44.143V41.533C33.7709 41.5316 33.7822 41.5288 33.7934 41.5259C35.488 41.1884 37.1727 40.7933 38.8489 40.3742C40.6152 39.9327 42.3716 39.4545 44.1167 38.9356C45.26 38.5953 46.3991 38.2381 47.5297 37.8598C47.5508 37.8528 47.5705 37.8458 47.5916 37.8388H52.8791C58.9808 39.8792 64.5847 41.1027 66.7081 41.5316V44.1416V52.2458C66.7081 53.2175 66.6223 54.1948 66.4508 55.1525C66.4494 55.1638 66.4466 55.175 66.4452 55.1862C65.3258 61.3794 60.7316 66.3786 54.762 68.0872C54.7522 68.09 54.7423 68.0928 54.7325 68.0956C53.2714 68.5062 51.7527 68.72 50.2339 68.72C48.7194 68.72 47.1894 68.5161 45.7339 68.0956C45.7269 68.0942 45.7213 68.0914 45.7142 68.09C39.7419 66.3828 35.1448 61.3822 34.0241 55.1877ZM28.2922 83.8105C28.5523 82.4591 29.2948 81.2202 30.4437 80.2428C31.9808 78.9364 34.1127 78.2178 36.4456 78.2178C42.0777 78.2178 45.3584 76.5092 45.4948 76.4361C45.852 76.2463 46.0756 75.875 46.0756 75.47C46.0756 75.47 46.0756 70.4427 46.0756 70.4441C46.0784 70.8617 50.0117 70.9095 50.2325 70.9095C51.6303 70.9095 53.0253 70.7548 54.3894 70.4441V75.4714C54.3894 75.8764 54.613 76.2477 54.9702 76.4375C55.1066 76.5106 58.3873 78.2192 64.0194 78.2192C66.3523 78.2192 68.4842 78.9378 70.0213 80.2442C71.1716 81.2216 71.9127 82.4605 72.1728 83.8119H28.2922V83.8105Z" fill="#5C8692"/>
</svg>
