<svg width="66" height="65" viewBox="0 0 66 65" fill="none" xmlns="http://www.w3.org/2000/svg">
<path d="M1.50049 1H64.5005V64H1.50049V1Z" stroke="#7A9CA5" stroke-width="2"/>
<path d="M36.3128 24.75C37.5337 24.9882 38.6558 25.5853 39.5354 26.4649C40.415 27.3445 41.0121 28.4666 41.2503 29.6875L36.3128 24.75ZM36.3128 19.75C38.8494 20.0318 41.2148 21.1677 43.0206 22.9713C44.8264 24.7748 45.9653 27.1388 46.2503 29.675L36.3128 19.75ZM45.0003 39.65V43.4C45.0017 43.7481 44.9304 44.0927 44.7909 44.4117C44.6515 44.7307 44.4469 45.017 44.1904 45.2523C43.9339 45.4877 43.631 45.6669 43.3012 45.7784C42.9714 45.8899 42.622 45.9313 42.2753 45.9C38.4288 45.4821 34.734 44.1677 31.4878 42.0625C28.4676 40.1433 25.907 37.5827 23.9878 34.5625C21.8753 31.3015 20.5606 27.5887 20.1503 23.725C20.119 23.3793 20.1601 23.031 20.2709 22.702C20.3817 22.3731 20.5597 22.0709 20.7937 21.8145C21.0277 21.5582 21.3125 21.3534 21.63 21.2132C21.9475 21.0729 22.2907 21.0003 22.6378 21H26.3878C26.9944 20.994 27.5825 21.2088 28.0425 21.6044C28.5024 22 28.8029 22.5493 28.8878 23.15C29.0461 24.3501 29.3396 25.5284 29.7628 26.6625C29.931 27.1099 29.9674 27.5961 29.8677 28.0636C29.768 28.5311 29.5364 28.9601 29.2003 29.3L27.6128 30.8875C29.3922 34.0169 31.9834 36.6081 35.1128 38.3875L36.7003 36.8C37.0401 36.4639 37.4692 36.2323 37.9367 36.1326C38.4041 36.0329 38.8904 36.0693 39.3378 36.2375C40.4719 36.6607 41.6502 36.9542 42.8503 37.1125C43.4575 37.1982 44.012 37.504 44.4084 37.9719C44.8049 38.4397 45.0155 39.037 45.0003 39.65Z" stroke="#7A9CA5" stroke-width="2" stroke-linecap="round" stroke-linejoin="round"/>
</svg>
