<svg width="100" height="100" viewBox="0 0 100 100" fill="none" xmlns="http://www.w3.org/2000/svg">
<path d="M0.5 0.5H99.5V99.5H0.5V0.5Z" fill="#F2FCFF"/>
<path d="M0.5 0.5H99.5V99.5H0.5V0.5Z" stroke="#1E2C30"/>
<path d="M28.168 69.059C27.9721 69.5568 27.4967 69.8596 26.9928 69.8596C26.838 69.8596 26.6801 69.8311 26.5269 69.7692C21.6919 67.8461 18.7587 65.3743 18.0415 62.6235C17.8646 61.9465 18.269 61.2521 18.945 61.0761C19.6211 60.9001 20.3113 61.3044 20.4867 61.983C20.9842 63.8919 23.461 65.8214 27.4604 67.4132C28.108 67.6701 28.4255 68.4073 28.168 69.059ZM32.4628 55.7806C32.7013 55.9836 32.9919 56.0835 33.281 56.0835C33.638 56.0835 33.9934 55.9312 34.2429 55.6379C34.6962 55.1052 34.6315 54.3046 34.1008 53.8495C33.4737 53.3136 32.8608 52.746 32.278 52.161C26.7243 46.5865 23.8164 39.501 24.6977 33.8536C27.0671 33.481 29.6891 33.7822 32.3459 34.6732C32.458 34.7319 32.5812 34.7747 32.7092 34.7985C36.2458 36.0542 39.8282 38.342 42.9367 41.4622C43.7186 42.247 44.4641 43.081 45.1512 43.9372C45.5888 44.4826 46.3849 44.5682 46.9282 44.129C47.4716 43.6898 47.5569 42.8907 47.1194 42.3453C46.3754 41.4178 45.5698 40.5173 44.7232 39.6675C41.5294 36.4617 37.8459 34.0597 34.1418 32.6423C34.0518 30.3481 34.4388 28.2537 35.2586 26.6032C37.3451 27.0582 39.5044 28.3329 41.4456 30.2625C41.1755 31.3453 40.9591 32.4647 40.8028 33.6126C40.708 34.307 41.1913 34.946 41.8832 35.0411C42.575 35.1362 43.2116 34.6511 43.3063 33.9566C44.1561 27.7416 46.8445 22.5238 50.5628 19.7984C54.281 22.5238 56.9694 27.74 57.8192 33.9534C57.914 34.6479 58.5505 35.133 59.2424 35.0379C59.9342 34.9428 60.4175 34.3022 60.3228 33.6094C60.1664 32.4615 59.95 31.3438 59.6799 30.2625C61.6211 28.3329 63.782 27.0582 65.867 26.6032C66.6852 28.2537 67.0737 30.3481 66.9837 32.6423C63.2797 34.0613 59.5962 36.4632 56.4023 39.6675C55.5557 40.5173 54.7501 41.4178 54.0062 42.3453C53.5686 42.8907 53.6539 43.6898 54.1973 44.129C54.7407 44.5682 55.5367 44.4826 55.9743 43.9372C56.6614 43.081 57.4069 42.2486 58.1888 41.4622C61.2973 38.342 64.8782 36.0526 68.4148 34.7985C68.5443 34.7747 68.6675 34.7319 68.7796 34.6732C71.4364 33.7838 74.0585 33.481 76.4278 33.8536C77.3092 39.5026 74.4012 46.5881 68.8476 52.161C68.2647 52.746 67.6518 53.3136 67.0248 53.8495C66.494 54.303 66.4293 55.1036 66.881 55.6379C67.3328 56.1707 68.1304 56.2357 68.6627 55.7822C69.3404 55.2035 70.0038 54.5884 70.634 53.9558C77.0533 47.514 80.2329 39.0872 78.7387 32.4901C78.6312 32.0144 78.2616 31.6434 77.7862 31.534C75.2321 30.9506 72.4031 31.0758 69.5204 31.8257C69.4936 29.0321 68.8302 26.489 67.6013 24.531C67.3423 24.1188 66.87 23.892 66.3866 23.9475C63.8483 24.2424 61.2231 25.5108 58.8633 27.564C57.2316 22.9867 54.5574 19.2942 51.2341 17.195C50.8234 16.935 50.299 16.935 49.8883 17.195C46.5649 19.2942 43.8908 22.9867 42.2591 27.564C39.8993 25.5108 37.2772 24.2424 34.7357 23.9475C34.2524 23.892 33.7817 24.1188 33.5226 24.531C32.2953 26.489 31.6335 29.0321 31.6067 31.8257C28.7256 31.0758 25.895 30.9506 23.3409 31.534C22.867 31.6418 22.4974 32.0144 22.3884 32.4901C20.8926 39.0872 24.0738 47.5124 30.4931 53.9558C31.1217 54.5868 31.7852 55.2003 32.4628 55.7806ZM31.8641 65.6993C32.0947 65.0382 31.7472 64.3152 31.0886 64.0837C27.2756 62.7456 24.9994 61.0539 24.9994 59.5604C24.9994 58.5948 25.9914 57.504 27.7921 56.4877C28.4002 56.1453 28.6166 55.3716 28.2738 54.7612C27.9326 54.1508 27.1618 53.9336 26.5537 54.2776C23.8448 55.806 22.4722 57.5833 22.4722 59.562C22.4722 62.3017 25.1637 64.6926 30.2546 66.481C30.392 66.5301 30.5326 66.5523 30.6716 66.5523C31.1944 66.5507 31.6825 66.2225 31.8641 65.6993ZM69.7874 64.1725C69.1271 64.3977 68.7733 65.1175 68.9976 65.7818C69.1761 66.3097 69.6673 66.6427 70.1933 66.6427C70.3276 66.6427 70.465 66.6205 70.5993 66.5745C75.8702 64.7782 78.6581 62.3524 78.6581 59.5604C78.6581 57.6531 77.3787 55.9297 74.8561 54.4377C74.2543 54.0826 73.4804 54.2824 73.1265 54.8864C72.7727 55.4905 72.9717 56.2674 73.5735 56.6225C75.2226 57.5976 76.1308 58.6408 76.1308 59.5588C76.1293 61.0713 73.6999 62.8391 69.7874 64.1725ZM63.0964 73.4428C63.0964 74.727 62.0555 75.7734 60.7745 75.7734C60.0764 75.7734 59.5109 76.341 59.5109 77.0418C59.5109 77.7426 60.0764 78.3102 60.7745 78.3102C63.4487 78.3102 65.6237 76.127 65.6237 73.4428C65.6237 72.742 65.0582 72.1744 64.3601 72.1744C63.6619 72.1744 63.0964 72.742 63.0964 73.4428ZM82.0541 61.0761C81.3797 60.9001 80.6878 61.3044 80.5125 61.983C80.0149 63.8935 77.5398 65.8214 73.5404 67.4132C72.8912 67.6717 72.5737 68.4089 72.8312 69.0605C73.027 69.5584 73.5041 69.8612 74.0063 69.8612C74.1611 69.8612 74.3191 69.8327 74.4723 69.7708C79.3073 67.8461 82.2421 65.3743 82.9592 62.6235C83.1345 61.9465 82.7286 61.2537 82.0541 61.0761ZM59.5993 61.6263C59.5993 62.3175 59.0402 62.8788 58.3515 62.8788C57.6533 62.8788 57.0879 63.4464 57.0879 64.1472C57.0879 64.8479 57.6533 65.4155 58.3515 65.4155C60.4333 65.4155 62.1266 63.7159 62.1266 61.6263C62.1266 60.9255 61.5611 60.3579 60.863 60.3579C60.1648 60.3579 59.5993 60.9271 59.5993 61.6263ZM55.9885 53.5261H56.3186C57.0168 53.5261 57.5823 52.9585 57.5823 52.2577C57.5823 51.5569 57.0168 50.9893 56.3186 50.9893H55.9885C55.2903 50.9893 54.7249 51.5569 54.7249 52.2577C54.7249 52.9585 55.2919 53.5261 55.9885 53.5261ZM69.0418 68.068C70.1996 69.6805 70.8125 71.5814 70.8125 73.5649C70.8125 78.7668 66.5967 83 61.4126 83H39.7176C34.5351 83 30.3178 78.7684 30.3178 73.5664C30.3178 70.1149 32.2227 66.9566 35.1796 65.3109C34.7657 64.3723 34.5367 63.3322 34.5367 62.2414C34.5367 58.923 36.6612 56.093 39.6165 55.0497C38.9642 54.1016 38.5803 52.9521 38.5803 51.7139C38.5803 48.4716 41.2087 45.8334 44.4389 45.8334H56.6914C59.9216 45.8334 62.5499 48.4716 62.5499 51.7139C62.5499 54.9562 59.9216 57.5944 56.6914 57.5944H44.4389C43.6523 57.5944 42.902 57.4374 42.2149 57.1552C42.1864 57.1568 42.1564 57.1584 42.128 57.1584C39.3354 57.1584 37.064 59.4383 37.064 62.2414C37.064 63.2894 37.3815 64.2661 37.9264 65.0762C37.9691 65.1286 38.0086 65.1841 38.0433 65.2427C38.9658 66.5032 40.4537 67.3244 42.128 67.3244H59.0023C61.7949 67.3244 64.0663 65.0445 64.0663 62.2414C64.0663 60.7321 63.3966 59.3067 62.2277 58.3317C61.6906 57.8845 61.618 57.0839 62.0634 56.5448C62.5088 56.0058 63.3065 55.9328 63.8436 56.3799C65.5905 57.8386 66.5936 59.9742 66.5936 62.2398C66.5936 66.4413 63.1881 69.8596 59.0023 69.8596H42.128C39.9403 69.8596 37.9659 68.9258 36.5791 67.4338C34.3156 68.6087 32.845 70.9742 32.845 73.5649C32.845 77.3684 35.9283 80.4632 39.7176 80.4632H61.4126C65.202 80.4632 68.2852 77.3684 68.2852 73.5664C68.2852 72.1189 67.8382 70.7316 66.9916 69.5536C66.5841 68.986 66.712 68.1933 67.2775 67.7826C67.843 67.372 68.6327 67.5004 69.0418 68.068ZM41.1076 51.7139C41.1076 53.5578 42.6019 55.0577 44.4389 55.0577H56.6914C58.5284 55.0577 60.0226 53.5578 60.0226 51.7139C60.0226 49.87 58.5284 48.3701 56.6914 48.3701H44.4389C42.6019 48.3701 41.1076 49.87 41.1076 51.7139Z" fill="#5C8692"/>
</svg>
