<svg width="100" height="100" viewBox="0 0 100 100" fill="none" xmlns="http://www.w3.org/2000/svg">
<rect x="0.5" y="0.5" width="99" height="99" fill="#F2FCFF" stroke="#1E2C30"/>
<path d="M30.088 42.896C30.896 42.896 31.551 42.241 31.551 41.433C31.551 40.625 30.896 39.97 30.088 39.97C29.28 39.97 28.625 40.625 28.625 41.433C28.625 42.241 29.28 42.896 30.088 42.896Z" fill="#5C8692"/>
<path d="M79.57 39.8991C78.6491 38.8409 77.2873 38.2352 75.8345 38.2352H64.0004V35.7299C64.0004 32.0608 61.0151 29.0756 57.3461 29.0756H56.1997V28.8891C56.1997 26.2667 54.1208 24.1228 51.5245 24.0144V21.5192C52.6116 21.2648 53.5556 20.899 54.3493 20.4176C55.8238 19.5228 56.4628 18.4414 56.7389 17.6926C57.3548 16.02 56.7071 14.103 55.2644 13.3296C54.8538 13.1113 54.4187 13 53.9691 13C52.9904 13 52.0709 13.5436 51.5158 14.4326C51.2353 14.6162 50.1627 15.1699 47.429 15.1699H40.6185C37.1591 15.1699 35.0094 17.535 35.0094 21.3443C35.0094 23.2106 36.3539 24.73 38.0077 24.73C39.4808 24.73 40.7096 23.5243 40.9597 21.9413H44.2312V24.0144C41.6348 24.1228 39.556 26.2667 39.556 28.8891V29.0756H38.4081C34.7391 29.0756 31.7538 32.0608 31.7538 35.7299V35.8282H27.466C25.5636 35.8282 24.0153 37.3765 24.0153 39.279V45.8003C22.9759 46.6893 22.3152 48.0078 22.3152 49.4809V51.6306C20.3433 53.0386 19.0003 55.288 18.8283 57.8685C18.7546 59.0005 18.7025 60.2003 18.6751 61.432C18.662 62.0551 19.155 62.5712 19.7781 62.5857C20.3997 62.6001 20.9173 62.1057 20.9303 61.4826C20.9563 60.2842 21.0069 59.119 21.0792 58.0174C21.2295 55.7391 22.6347 53.8149 24.5863 52.9042C24.6008 52.8984 24.6138 52.8912 24.6268 52.8854C25.4074 52.5312 26.2719 52.3404 27.1292 52.3404H33.0448C33.9049 52.3404 34.7651 52.5312 35.5472 52.8854C35.5616 52.8912 35.5747 52.8984 35.5877 52.9042C37.561 53.8193 38.9502 55.8446 39.0948 58.0174C39.209 59.7305 39.2654 61.4913 39.2654 63.2478C39.2654 64.079 39.2423 64.9088 39.2249 65.7386C39.2235 65.7675 39.2235 65.7964 39.222 65.8268C39.2119 66.1203 38.3951 66.9298 38.2245 67.2334C37.9441 67.7322 37.7171 68.2569 37.5494 68.8034C37.1678 70.0437 37.0868 71.3521 37.0637 72.6416C37.0304 74.573 37.2227 76.513 37.6492 78.3981C37.6506 78.4068 37.6521 78.414 37.6549 78.4227C36.9422 80.383 35.1092 81.6797 33.0072 81.6797H27.1668C24.8436 81.6797 22.8082 80.023 22.3239 77.7404C21.5562 74.119 21.0965 70.1478 20.9563 65.9352C20.936 65.3121 20.4113 64.8235 19.7911 64.8452C19.168 64.8654 18.6794 65.3873 18.7011 66.0104C18.8456 70.3546 19.3227 74.4587 20.1164 78.2088C20.8189 81.528 23.7854 83.9379 27.1668 83.9379H33.0101C35.2075 83.9379 37.2025 82.9649 38.5368 81.3617C39.2495 83.2598 40.2094 85.0206 41.3963 86.5762C41.6102 86.8552 41.9413 87.02 42.2926 87.02H63.5855C63.9368 87.02 64.2693 86.8552 64.4818 86.5762C64.8259 86.1266 65.1497 85.6582 65.4547 85.1768H75.1564C75.7795 85.1768 76.2855 84.6722 76.2855 84.0477V74.732L78.9643 55.3806C79.0496 54.7633 78.6188 54.1937 78.0015 54.1084C77.3827 54.0231 76.8146 54.4539 76.7293 55.0712L74.5869 70.5512H68.6886C68.612 69.8096 68.4501 69.0781 68.1884 68.3798C67.3847 66.2374 65.7395 64.5474 63.6766 63.6656L63.6361 63.3692L60.8258 43.0665C60.8156 42.9943 60.8099 42.9205 60.807 42.8483C60.807 42.8439 60.807 42.841 60.807 42.8367C60.7867 42.1066 61.1785 41.4489 61.7481 41.0166C62.2063 40.6697 62.8077 40.4933 63.3788 40.4933H75.8359C76.6353 40.4933 77.377 40.8171 77.8699 41.3824C78.2892 41.8638 78.4742 42.4623 78.3904 43.0651L77.3538 50.555C77.2685 51.1723 77.6993 51.7419 78.3166 51.8272C78.9339 51.9125 79.5035 51.4817 79.5888 50.8644L80.6253 43.373C80.7988 42.1139 80.4244 40.8793 79.57 39.8991ZM40.6171 19.6832C40.0966 19.6832 39.4504 19.7425 39.076 20.1545C38.7825 20.4769 38.7479 20.9294 38.7479 21.3443C38.7479 22.0093 38.3575 22.4733 38.0062 22.4733C37.6549 22.4733 37.2646 22.0093 37.2646 21.3443C37.2646 17.9354 39.3651 17.428 40.6171 17.428H47.4275C48.4799 17.428 49.5728 17.3615 50.6181 17.136C51.5187 16.9408 52.5263 16.6517 53.1884 15.9751C53.4298 15.7279 53.5469 15.2595 53.9676 15.2595C54.0428 15.2595 54.1165 15.2798 54.1931 15.3203C54.5921 15.5342 54.8581 16.2614 54.6167 16.9148C54.423 17.441 53.5831 18.9286 50.2364 19.4779C50.2277 19.4794 50.2205 19.4794 50.2118 19.4808C49.2924 19.6312 48.3585 19.6847 47.4275 19.6847H45.3588L40.6171 19.6832ZM49.2649 21.8661V24.0071H46.4878V21.9399C46.4907 21.989 49.2649 21.8893 49.2649 21.8661ZM44.435 26.2638H45.3588H50.394H51.3177C52.7634 26.2638 53.9401 27.4406 53.9401 28.8862V29.0727H41.8126V28.8862C41.8126 27.4406 42.9894 26.2638 44.435 26.2638ZM26.2734 39.2833C26.2734 39.2818 26.2734 39.279 26.2734 39.2775C26.2734 38.6197 26.8083 38.0849 27.466 38.0849H32.7094C32.7354 38.0849 32.76 38.0877 32.7846 38.0892C32.7903 38.0892 32.7947 38.0906 32.799 38.0906C34.1218 38.1875 33.902 39.7271 33.902 40.6523C33.902 41.7756 33.902 42.8988 33.902 44.0221C33.902 44.2549 33.902 44.4862 33.902 44.7189C33.6115 44.6654 33.3151 44.638 33.0188 44.638C33.0188 44.638 27.1581 44.638 27.1552 44.638C26.882 44.638 26.5625 44.7175 26.2748 44.7088C26.1895 42.9119 26.2734 41.0846 26.2734 39.2833ZM35.6036 50.4842C35.6036 50.156 33.3628 50.0808 33.0448 50.0808H27.1321C26.2661 50.0808 25.3973 50.2182 24.5733 50.4842C24.5733 50.4842 24.5733 49.4794 24.5733 49.478C24.5733 48.0829 25.7616 46.8932 27.1581 46.8932H33.0216C33.8702 46.8932 34.6899 47.3326 35.1641 48.0352C35.6585 48.7682 35.6036 49.6413 35.6036 50.4842ZM67.1953 81.8518C67.2126 81.7954 67.2256 81.752 67.2358 81.7246C67.6275 80.6172 67.9774 79.4896 68.2332 78.3418C68.638 76.5289 68.8361 74.6626 68.8144 72.8049H74.0288V74.651V82.9158C74.0288 82.9158 66.6907 82.9158 66.6879 82.9158C66.8816 82.9172 67.0955 82.1814 67.1953 81.8518ZM65.9838 68.9595H60.6552C60.0321 68.9595 59.5261 69.464 59.5261 70.0886C59.5261 70.7131 60.0307 71.2176 60.6552 71.2176H66.4811C66.4855 71.2653 66.4883 71.3145 66.4927 71.3622C66.844 76.0374 65.7597 80.9121 63.0159 84.7619H42.8636C41.4801 82.8218 40.4783 80.5449 39.8986 78.0873C39.3709 75.848 39.2061 73.5104 39.3969 71.2176H56.1404C56.7635 71.2176 57.2695 70.7131 57.2695 70.0886C57.2695 69.464 56.7649 68.9595 56.1404 68.9595H39.8914C40.1834 68.267 40.6055 67.6324 41.1433 67.0831C42.2694 65.9323 43.8784 65.2471 45.5077 65.2471H60.3704C60.8865 65.2471 61.3953 65.3136 61.8854 65.4423C63.6925 65.9121 65.2436 67.2045 65.9838 68.9595ZM61.7423 38.5026C61.7423 38.4954 60.3964 39.2009 60.2677 39.3021C58.053 41.0672 58.624 43.6462 58.9609 46.0822L61.3086 63.0425C61.3014 63.041 61.2941 63.041 61.2855 63.041C61.1568 63.0266 61.0267 63.0165 60.8966 63.0078C60.8677 63.0063 60.8402 63.0034 60.8113 63.002C60.6653 62.9948 60.5178 62.989 60.3689 62.989H45.5077C44.7921 62.989 44.0779 63.0815 43.3855 63.2622C43.0486 63.3504 42.7162 63.4588 42.3938 63.586C42.2752 63.6338 41.522 63.8954 41.5206 63.9937C41.5235 63.7422 41.5235 63.4935 41.5235 63.2449C41.5235 61.4378 41.4642 59.6279 41.3471 57.8656C41.2618 56.5804 40.8686 55.3126 40.2195 54.2009C39.9246 53.6964 39.5762 53.2222 39.183 52.79C38.9792 52.5659 38.7638 52.3534 38.5368 52.1539C38.4515 52.0787 37.8602 51.6971 37.8602 51.6175V49.4765C37.8602 48.0844 37.2314 46.7038 36.1601 45.793V39.2761C36.1601 39.1951 36.1558 39.1156 36.15 39.0361C36.1486 39.0202 36.1471 39.0028 36.1457 38.9869C36.0358 37.6699 35.1843 36.5611 34.0105 36.0812V35.727C34.0105 33.3027 35.9838 31.3293 38.4081 31.3293H40.6836H55.0677H57.3432C59.7675 31.3293 61.7408 33.3027 61.7408 35.727C61.7423 35.7284 61.7423 38.5026 61.7423 38.5026Z" fill="#5C8692"/>
</svg>
