<svg width="74" height="75" viewBox="0 0 74 75" fill="none" xmlns="http://www.w3.org/2000/svg">
<path d="M12.19 58.8691C11.97 59.4273 11.436 59.7668 10.8701 59.7668C10.6963 59.7668 10.5189 59.7348 10.3468 59.6655C4.91676 57.5092 1.62254 54.7379 0.817166 51.6536C0.618483 50.8946 1.07261 50.116 1.83186 49.9187C2.59111 49.7213 3.36633 50.1746 3.56324 50.9355C4.12203 53.0758 6.90358 55.2392 11.3952 57.0239C12.1225 57.3119 12.4791 58.1385 12.19 58.8691ZM17.0133 43.9813C17.2812 44.2089 17.6076 44.3208 17.9322 44.3208C18.3331 44.3208 18.7323 44.1502 19.0126 43.8213C19.5217 43.224 19.4489 42.3263 18.8529 41.8161C18.1486 41.2153 17.4604 40.5789 16.8058 39.9229C10.5686 33.6727 7.30272 25.7284 8.29259 19.3964C10.9535 18.9787 13.8983 19.3164 16.882 20.3155C17.008 20.3812 17.1464 20.4292 17.2901 20.4559C21.2619 21.8638 25.2852 24.4289 28.7764 27.9274C29.6545 28.8073 30.4918 29.7423 31.2634 30.7023C31.7548 31.3138 32.6489 31.4098 33.2591 30.9174C33.8694 30.425 33.9652 29.529 33.4738 28.9175C32.6383 27.8776 31.7335 26.8679 30.7827 25.9151C27.1958 22.3207 23.0589 19.6275 18.899 18.0383C18.7979 15.466 19.2325 13.1178 20.1532 11.2672C22.4966 11.7774 24.9216 13.2066 27.1018 15.37C26.7984 16.5842 26.5554 17.8392 26.3798 19.1262C26.2733 19.9048 26.8162 20.6212 27.5931 20.7279C28.3701 20.8345 29.085 20.2906 29.1915 19.512C30.1459 12.5436 33.1651 6.69333 37.341 3.63755C41.5169 6.69333 44.5361 12.5418 45.4905 19.5084C45.597 20.287 46.3119 20.831 47.0888 20.7243C47.8658 20.6177 48.4087 19.8995 48.3022 19.1227C48.1266 17.8356 47.8836 16.5824 47.5802 15.37C49.7604 13.2066 52.1872 11.7774 54.5288 11.2672C55.4477 13.1178 55.8841 15.466 55.783 18.0383C51.6231 19.6293 47.4862 22.3224 43.8993 25.9151C42.9484 26.8679 42.0437 27.8776 41.2082 28.9175C40.7168 29.529 40.8126 30.425 41.4229 30.9174C42.0331 31.4098 42.9272 31.3138 43.4185 30.7023C44.1902 29.7423 45.0275 28.8091 45.9056 27.9274C49.3967 24.4289 53.4183 21.862 57.3902 20.4559C57.5356 20.4292 57.674 20.3812 57.7999 20.3155C60.7837 19.3182 63.7285 18.9787 66.3894 19.3964C67.3793 25.7302 64.1134 33.6745 57.8762 39.9229C57.2216 40.5789 56.5333 41.2153 55.8291 41.8161C55.233 42.3245 55.1603 43.2223 55.6677 43.8213C56.175 44.4186 57.0709 44.4915 57.6687 43.9831C58.4297 43.3342 59.1748 42.6445 59.8826 41.9352C67.0919 34.7126 70.6628 25.2644 68.9847 17.8676C68.8641 17.3343 68.449 16.9184 67.915 16.7957C65.0465 16.1415 61.8694 16.282 58.6319 17.1228C58.6018 13.9906 57.8567 11.1392 56.4766 8.94384C56.1857 8.48165 55.6552 8.22744 55.1124 8.28966C52.2617 8.6203 49.3134 10.0424 46.6631 12.3445C44.8306 7.2124 41.8273 3.07226 38.0949 0.718651C37.6337 0.427116 37.0447 0.427116 36.5835 0.718651C32.8511 3.07226 29.8478 7.2124 28.0153 12.3445C25.3651 10.0424 22.4203 8.6203 19.566 8.28966C19.0232 8.22744 18.4946 8.48165 18.2036 8.94384C16.8253 11.1392 16.082 13.9906 16.0518 17.1228C12.8162 16.282 9.63724 16.1415 6.76876 16.7957C6.23658 16.9166 5.82147 17.3343 5.69907 17.8676C4.01914 25.2644 7.59187 34.7109 14.8012 41.9352C15.5072 42.6427 16.2523 43.3307 17.0133 43.9813ZM16.341 55.1023C16.6 54.361 16.2097 53.5504 15.47 53.2909C11.1877 51.7905 8.63141 49.8938 8.63141 48.2192C8.63141 47.1366 9.74545 45.9136 11.7678 44.7741C12.4507 44.3902 12.6938 43.5227 12.3088 42.8383C11.9256 42.1539 11.0599 41.9103 10.377 42.2961C7.33465 44.0098 5.79309 46.0025 5.79309 48.221C5.79309 51.2928 8.8159 53.9735 14.5333 55.9787C14.6877 56.0338 14.8456 56.0587 15.0017 56.0587C15.5888 56.0569 16.137 55.6889 16.341 55.1023ZM58.9317 53.3904C58.1902 53.6428 57.7928 54.4499 58.0447 55.1947C58.2452 55.7867 58.7969 56.16 59.3876 56.16C59.5384 56.16 59.6927 56.1351 59.8435 56.0835C65.7632 54.0695 68.8942 51.3497 68.8942 48.2192C68.8942 46.0807 67.4573 44.1484 64.6243 42.4756C63.9485 42.0774 63.0792 42.3014 62.6819 42.9787C62.2845 43.656 62.508 44.5271 63.1839 44.9252C65.0359 46.0185 66.0559 47.1882 66.0559 48.2174C66.0541 49.9133 63.3258 51.8954 58.9317 53.3904ZM51.4173 63.7843C51.4173 65.2242 50.2482 66.3975 48.8096 66.3975C48.0255 66.3975 47.3904 67.0339 47.3904 67.8196C47.3904 68.6053 48.0255 69.2417 48.8096 69.2417C51.8129 69.2417 54.2556 66.7939 54.2556 63.7843C54.2556 62.9986 53.6205 62.3622 52.8364 62.3622C52.0524 62.3622 51.4173 62.9986 51.4173 63.7843ZM72.7082 49.9187C71.9507 49.7213 71.1737 50.1746 70.9768 50.9355C70.418 53.0775 67.6383 55.2392 63.1466 57.0239C62.4175 57.3137 62.061 58.1403 62.3501 58.8709C62.5701 59.4291 63.1058 59.7686 63.6699 59.7686C63.8438 59.7686 64.0212 59.7366 64.1933 59.6673C69.6233 57.5092 72.9193 54.7379 73.7247 51.6536C73.9216 50.8946 73.4657 50.1178 72.7082 49.9187ZM47.4898 50.5355C47.4898 51.3106 46.8618 51.9398 46.0883 51.9398C45.3043 51.9398 44.6692 52.5762 44.6692 53.362C44.6692 54.1477 45.3043 54.7841 46.0883 54.7841C48.4264 54.7841 50.3281 52.8784 50.3281 50.5355C50.3281 49.7498 49.693 49.1134 48.9089 49.1134C48.1248 49.1134 47.4898 49.7516 47.4898 50.5355ZM43.4345 41.4535H43.8053C44.5893 41.4535 45.2244 40.8171 45.2244 40.0314C45.2244 39.2457 44.5893 38.6093 43.8053 38.6093H43.4345C42.6504 38.6093 42.0154 39.2457 42.0154 40.0314C42.0154 40.8171 42.6522 41.4535 43.4345 41.4535ZM58.0944 57.7581C59.3947 59.566 60.083 61.6974 60.083 63.9212C60.083 69.7537 55.3483 74.5 49.5262 74.5H25.1611C19.3407 74.5 14.6043 69.7555 14.6043 63.923C14.6043 60.053 16.7437 56.512 20.0645 54.6668C19.5997 53.6144 19.3425 52.4483 19.3425 51.2252C19.3425 47.5046 21.7285 44.3315 25.0475 43.1618C24.3149 42.0988 23.8838 40.81 23.8838 39.4216C23.8838 35.7863 26.8357 32.8283 30.4634 32.8283H44.2239C47.8516 32.8283 50.8035 35.7863 50.8035 39.4216C50.8035 43.0569 47.8516 46.0149 44.2239 46.0149H30.4634C29.58 46.0149 28.7373 45.839 27.9657 45.5225C27.9337 45.5243 27.9 45.5261 27.8681 45.5261C24.7318 45.5261 22.1808 48.0823 22.1808 51.2252C22.1808 52.4003 22.5374 53.4953 23.1494 54.4037C23.1973 54.4623 23.2417 54.5246 23.2807 54.5903C24.3167 56.0036 25.9877 56.9244 27.8681 56.9244H46.8192C49.9555 56.9244 52.5065 54.3681 52.5065 51.2252C52.5065 49.5329 51.7543 47.9348 50.4416 46.8415C49.8385 46.3403 49.7569 45.4425 50.2571 44.8381C50.7574 44.2337 51.6532 44.152 52.2564 44.6533C54.2183 46.2887 55.3448 48.6832 55.3448 51.2235C55.3448 55.9342 51.5202 59.7668 46.8192 59.7668H27.8681C25.4112 59.7668 23.1938 58.7198 21.6362 57.047C19.0942 58.3643 17.4426 61.0165 17.4426 63.9212C17.4426 68.1858 20.9054 71.6558 25.1611 71.6558H49.5262C53.782 71.6558 57.2447 68.1858 57.2447 63.923C57.2447 62.3 56.7427 60.7445 55.7918 59.4238C55.3342 58.7874 55.4778 57.8985 56.1129 57.4381C56.748 56.9777 57.635 57.1217 58.0944 57.7581ZM26.7221 39.4216C26.7221 41.489 28.4003 43.1707 30.4634 43.1707H44.2239C46.287 43.1707 47.9652 41.489 47.9652 39.4216C47.9652 37.3542 46.287 35.6726 44.2239 35.6726H30.4634C28.4003 35.6726 26.7221 37.3542 26.7221 39.4216Z" fill="#7A9CA5"/>
</svg>
