<svg width="50" height="73" viewBox="0 0 50 73" fill="none" xmlns="http://www.w3.org/2000/svg">
<path d="M36.5784 29.3281C35.5533 28.663 33.6942 28.2664 31.6017 28.2664C29.5106 28.2664 27.6502 28.663 26.6264 29.3281C26.1187 29.6572 25.9753 30.335 26.3044 30.8413C26.6334 31.3475 27.3112 31.4923 27.8189 31.1633C28.3631 30.8103 29.7441 30.4545 31.6031 30.4545C33.4622 30.4545 34.8431 30.8103 35.3873 31.1633C35.5716 31.2828 35.7783 31.3405 35.9822 31.3405C36.3408 31.3405 36.6909 31.1647 36.9005 30.8427C37.2295 30.335 37.0847 29.6572 36.5784 29.3281Z" fill="#7A9CA5"/>
<path d="M31.1559 44.1063C30.7538 43.6549 30.0619 43.617 29.6105 44.0192C28.9509 44.6084 27.2972 45.2018 25.0894 45.2018C22.8802 45.2018 21.2264 44.607 20.5683 44.0192C20.1169 43.617 19.425 43.6549 19.0228 44.1063C18.6206 44.5563 18.6586 45.2482 19.11 45.6518C20.3292 46.7417 22.5652 47.3913 25.0894 47.3913C27.615 47.3913 29.8495 46.7417 31.0688 45.6518C31.5202 45.2482 31.5595 44.5577 31.1559 44.1063Z" fill="#7A9CA5"/>
<path d="M22.5005 34.4595C22.0926 34.0123 21.4008 33.9814 20.955 34.3892C20.6386 34.6775 19.7597 34.9883 18.577 34.9883C17.3944 34.9883 16.5155 34.6775 16.199 34.3892C15.7519 33.9814 15.06 34.0137 14.6536 34.4595C14.2458 34.9067 14.2781 35.5986 14.7239 36.005C15.5283 36.739 16.9683 37.1764 18.577 37.1764C20.1858 37.1764 21.6272 36.739 22.4301 36.005C22.8759 35.5986 22.9083 34.9053 22.5005 34.4595Z" fill="#7A9CA5"/>
<path d="M23.5524 29.3281C22.5272 28.663 20.6681 28.2664 18.577 28.2664C16.4859 28.2664 14.6255 28.663 13.6017 29.3281C13.0955 29.6572 12.9506 30.335 13.2797 30.8413C13.4892 31.1633 13.8408 31.3391 14.198 31.3391C14.4019 31.3391 14.6086 31.2814 14.7928 31.1619C15.337 30.8089 16.718 30.4531 18.577 30.4531C20.4361 30.4531 21.817 30.8089 22.3613 31.1619C22.8689 31.4909 23.5467 31.3475 23.8744 30.8398C24.2034 30.335 24.06 29.6572 23.5524 29.3281Z" fill="#7A9CA5"/>
<path d="M35.5252 34.4595C35.1173 34.0123 34.4255 33.9814 33.9797 34.3892C33.6633 34.6775 32.7844 34.9883 31.6017 34.9883C30.4191 34.9883 29.5402 34.6775 29.2237 34.3892C28.778 33.9814 28.0847 34.0137 27.6783 34.4595C27.2705 34.9067 27.3028 35.5986 27.7486 36.005C28.553 36.739 29.993 37.1764 31.6017 37.1764C33.2105 37.1764 34.6505 36.739 35.4548 36.005C35.902 35.5986 35.933 34.9053 35.5252 34.4595Z" fill="#7A9CA5"/>
<path d="M46.2956 65.075C44.3634 63.4325 41.7281 62.5283 38.8763 62.5283C35.123 62.5283 32.527 61.6916 31.4344 61.257V56.2958C37.0608 54.2553 41.4342 49.5838 43.0612 43.7745C46.5839 43.333 49.3219 40.3138 49.3219 36.68C49.3219 33.3205 46.9453 30.4334 43.7503 29.705V27.282C45.0145 22.8509 44.9358 18.4986 44.6419 15.6144C44.4745 13.9663 44.2214 12.6106 44.0386 11.7641C43.8684 10.978 43.7588 10.5533 43.6772 10.3072C43.6603 10.2425 43.6392 10.1792 43.6097 10.1173C42.3975 7.54813 40.2417 5.35859 37.4827 3.7175C37.4264 3.67672 37.3673 3.64297 37.3055 3.61344C33.915 1.64609 29.6386 0.5 25.0894 0.5C21.5077 0.5 18.0047 1.20875 14.9602 2.54891C14.4075 2.79219 14.1558 3.43766 14.3991 3.99172C14.6423 4.54438 15.2878 4.79609 15.8419 4.55281C18.6108 3.33359 21.8086 2.68953 25.0894 2.68953C28.7189 2.68953 32.1417 3.47 34.9795 4.83687C33.6492 5.98156 32.0658 7.08406 30.173 8.18234C29.6498 8.48609 29.4727 9.15547 29.7764 9.67859C29.9789 10.0287 30.3459 10.2242 30.7242 10.2242C30.9112 10.2242 31.0997 10.1764 31.2727 10.0766C33.5648 8.74625 35.445 7.39906 36.9975 5.97453C38.8959 7.21766 40.4077 8.76594 41.3695 10.5392C41.3316 10.5997 41.2922 10.6587 41.2528 10.7192C41.2261 10.7586 41.1994 10.7994 41.1727 10.8387C38.7764 14.3291 33.6914 17.6731 26.3353 20.5967C26.2917 20.6136 26.2467 20.6305 26.2031 20.6488C26.0428 20.712 25.8825 20.7753 25.7208 20.8372C18.4041 23.6637 10.9411 25.3245 8.31141 25.8631C7.71375 23.4402 7.52531 21.0495 7.54641 18.9134C8.45625 18.7306 9.36188 18.4691 10.2464 18.2145C10.9397 18.0134 11.6569 17.8067 12.3488 17.6464C12.36 17.6436 12.3712 17.6408 12.3825 17.638C16.8811 16.4469 21.308 14.8381 26.7375 12.4208C27.2902 12.1747 27.5377 11.5278 27.2916 10.9766C27.0455 10.4253 26.3986 10.1764 25.8473 10.4225C20.5359 12.7878 16.2145 14.36 11.8397 15.5188C11.0958 15.6917 10.3547 15.9055 9.63891 16.1122C8.95406 16.3105 8.29313 16.5003 7.64625 16.6522C7.88391 13.595 8.46609 11.3984 8.58281 10.978C9.34078 9.40719 10.5389 7.97984 12.1462 6.73109C12.6244 6.36125 12.7102 5.67359 12.3403 5.19547C11.9691 4.71875 11.2828 4.63156 10.8047 5.00141C8.89641 6.48359 7.47047 8.20484 6.56625 10.1202C6.54375 10.1694 6.52406 10.2186 6.50859 10.2706C6.40453 10.6152 3.99562 18.7728 6.42562 27.2862V29.7092C3.23344 30.4334 0.855469 33.3219 0.855469 36.6814C0.855469 40.3152 3.59484 43.3344 7.11609 43.7759C8.74312 49.5852 13.118 54.2567 18.743 56.2972V61.2584C17.6475 61.6944 15.053 62.5311 11.3011 62.5311C8.44922 62.5311 5.81531 63.4353 3.88172 65.0778C1.93125 66.7344 0.855469 68.983 0.855469 71.4059C0.855469 72.0106 1.34484 72.5 1.94953 72.5H48.2292C48.8339 72.5 49.3233 72.0106 49.3233 71.4059C49.3233 68.983 48.2475 66.7344 46.2956 65.075ZM43.5703 41.3361C43.6884 40.4783 43.7503 39.612 43.7503 38.7472V31.9775C45.7191 32.6441 47.1338 34.5228 47.1338 36.6814C47.1338 38.9328 45.6192 40.8453 43.5562 41.4472C43.5619 41.4106 43.5661 41.3727 43.5703 41.3361ZM3.04359 36.6814C3.04359 34.5228 4.45828 32.6441 6.42703 31.9775V38.7472C6.42703 39.6134 6.48891 40.4783 6.60703 41.3361C6.61266 41.3727 6.61547 41.4106 6.62109 41.4472C4.55813 40.8439 3.04359 38.9328 3.04359 36.6814ZM41.7773 13.6048C41.8027 13.5767 41.828 13.5472 41.8533 13.5191C41.9222 13.4403 41.9897 13.3616 42.0558 13.2828C42.0684 13.2673 42.0825 13.2519 42.0952 13.2378C42.5916 16.0039 43.0978 20.8681 41.8659 25.8617C39.6877 25.4159 34.1878 24.2038 28.2197 22.1942C34.4733 19.6067 39.0113 16.7323 41.7773 13.6048ZM8.87953 41.6877C8.87813 41.6764 8.87531 41.6638 8.8725 41.6525C8.69953 40.6948 8.61656 39.7203 8.61656 38.7472V28.033C8.62641 28.0316 8.63766 28.0288 8.64891 28.0259C10.3434 27.6884 12.0281 27.2933 13.7044 26.8742C15.4706 26.4327 17.227 25.9545 18.9722 25.4356C20.1155 25.0953 21.2545 24.7381 22.3852 24.3598C22.4063 24.3528 22.4259 24.3458 22.447 24.3388H27.7345C33.8363 26.3792 39.4402 27.6027 41.5636 28.0316V38.7458C41.5636 39.7175 41.4778 40.6948 41.3062 41.6525C41.3048 41.6638 41.302 41.675 41.3006 41.6862C40.1812 47.8794 35.587 52.8786 29.6175 54.5872C29.6077 54.59 29.5978 54.5928 29.588 54.5956C28.1269 55.0062 26.6081 55.22 25.0894 55.22C23.5748 55.22 22.0448 55.0161 20.5894 54.5956C20.5823 54.5942 20.5767 54.5914 20.5697 54.59C14.5973 52.8828 10.0003 47.8822 8.87953 41.6877ZM3.14766 70.3105C3.40781 68.9591 4.15031 67.7202 5.29922 66.7428C6.83625 65.4364 8.96813 64.7178 11.3011 64.7178C16.9331 64.7178 20.2139 63.0092 20.3503 62.9361C20.7075 62.7462 20.9311 62.375 20.9311 61.97V56.9441C20.9339 57.3617 24.8672 57.4095 25.088 57.4095C26.4858 57.4095 27.8808 57.2548 29.2448 56.9441V61.9714C29.2448 62.3764 29.4684 62.7477 29.8256 62.9375C29.962 63.0106 33.2428 64.7192 38.8748 64.7192C41.2078 64.7192 43.3397 65.4378 44.8767 66.7442C46.027 67.7216 46.7681 68.9605 47.0283 70.3119H3.14766V70.3105Z" fill="#7A9CA5"/>
</svg>
