<svg width="23" height="24" viewBox="0 0 23 24" fill="none" xmlns="http://www.w3.org/2000/svg">
<path d="M13.9381 5.53613C14.9149 5.7267 15.8125 6.20439 16.5162 6.90807C17.2199 7.61175 17.6976 8.5094 17.8881 9.48613L13.9381 5.53613ZM13.9381 1.53613C15.9674 1.76157 17.8597 2.67031 19.3044 4.11314C20.749 5.55597 21.6601 7.44714 21.8881 9.47613L13.9381 1.53613ZM20.8881 17.4561V20.4561C20.8892 20.7346 20.8322 21.0103 20.7206 21.2655C20.6091 21.5207 20.4454 21.7497 20.2402 21.938C20.035 22.1263 19.7927 22.2696 19.5289 22.3588C19.265 22.4481 18.9855 22.4812 18.7081 22.4561C15.631 22.1218 12.6751 21.0703 10.0781 19.3861C7.66195 17.8508 5.61345 15.8023 4.07812 13.3861C2.3881 10.7773 1.33636 7.80713 1.00812 4.71613C0.983127 4.4396 1.01599 4.16089 1.10462 3.89776C1.19324 3.63462 1.33569 3.39282 1.52288 3.18775C1.71008 2.98269 1.93792 2.81884 2.19191 2.70665C2.44589 2.59447 2.72046 2.53639 2.99812 2.53613H5.99812C6.48342 2.53136 6.95391 2.70321 7.32188 3.01967C7.68985 3.33612 7.93019 3.77558 7.99812 4.25613C8.12474 5.2162 8.35957 6.15886 8.69812 7.06613C8.83266 7.42406 8.86178 7.81305 8.78202 8.18701C8.70227 8.56098 8.51698 8.90424 8.24812 9.17613L6.97812 10.4461C8.40167 12.9497 10.4746 15.0226 12.9781 16.4461L14.2481 15.1761C14.52 14.9073 14.8633 14.722 15.2372 14.6422C15.6112 14.5625 16.0002 14.5916 16.3581 14.7261C17.2654 15.0647 18.2081 15.2995 19.1681 15.4261C19.6539 15.4947 20.0975 15.7393 20.4147 16.1136C20.7318 16.4879 20.9003 16.9657 20.8881 17.4561Z" stroke="#7A9CA5" stroke-width="2" stroke-linecap="round" stroke-linejoin="round"/>
</svg>
