<svg width="67" height="79" viewBox="0 0 67 79" fill="none" xmlns="http://www.w3.org/2000/svg">
<path d="M12.8107 32.0116C13.6623 32.0116 14.3527 31.3212 14.3527 30.4695C14.3527 29.6179 13.6623 28.9275 12.8107 28.9275C11.959 28.9275 11.2686 29.6179 11.2686 30.4695C11.2686 31.3212 11.959 32.0116 12.8107 32.0116Z" fill="#7A9CA5"/>
<path d="M64.9662 28.8527C63.9956 27.7374 62.5602 27.0989 61.0288 27.0989H48.5552V24.4582C48.5552 20.5909 45.4087 17.4443 41.5413 17.4443H40.333V17.2477C40.333 14.4836 38.1418 12.2239 35.4051 12.1096V9.47956C36.551 9.21138 37.546 8.82587 38.3826 8.31845C39.9368 7.37524 40.6103 6.23546 40.9013 5.44615C41.5505 3.68315 40.8678 1.66263 39.3471 0.847419C38.9144 0.61733 38.4557 0.5 37.9818 0.5C36.9502 0.5 35.9811 1.07294 35.396 2.01005C35.1004 2.20357 33.9697 2.78718 31.0883 2.78718H23.9098C20.2634 2.78718 17.9976 5.28006 17.9976 9.29519C17.9976 11.2624 19.4147 12.8639 21.1579 12.8639C22.7106 12.8639 24.0058 11.593 24.2694 9.9245H27.7177V12.1096C24.981 12.2239 22.7898 14.4836 22.7898 17.2477V17.4443H21.58C17.7126 17.4443 14.5661 20.5909 14.5661 24.4582V24.5618H10.0466C8.04129 24.5618 6.40934 26.1938 6.40934 28.1991V35.0728C5.31375 36.0099 4.61739 37.3996 4.61739 38.9523V41.2181C2.53897 42.7023 1.12339 45.0733 0.942058 47.7932C0.864346 48.9863 0.80949 50.251 0.780539 51.5493C0.766825 52.206 1.28643 52.75 1.94317 52.7652C2.59839 52.7805 3.1439 52.2593 3.15762 51.6026C3.18504 50.3394 3.23838 49.1112 3.31456 47.9501C3.47304 45.5487 4.95414 43.5205 7.01123 42.5606C7.02646 42.5545 7.04018 42.5468 7.05389 42.5408C7.87673 42.1674 8.78794 41.9663 9.69153 41.9663H15.9268C16.8334 41.9663 17.7401 42.1674 18.5644 42.5408C18.5797 42.5468 18.5934 42.5545 18.6071 42.5606C20.687 43.5251 22.1514 45.6599 22.3038 47.9501C22.4241 49.7558 22.4836 51.6117 22.4836 53.4631C22.4836 54.3393 22.4592 55.2139 22.4409 56.0886C22.4394 56.119 22.4394 56.1495 22.4379 56.1815C22.4272 56.4909 21.5663 57.3442 21.3864 57.6642C21.0908 58.1899 20.8516 58.743 20.6749 59.319C20.2726 60.6264 20.1872 62.0054 20.1629 63.3646C20.1278 65.4003 20.3305 67.4452 20.78 69.4322C20.7815 69.4414 20.783 69.449 20.7861 69.4581C20.0349 71.5243 18.1027 72.8912 15.8872 72.8912H9.73115C7.28246 72.8912 5.13699 71.1449 4.62653 68.7389C3.81741 64.9219 3.33285 60.7361 3.18504 56.2958C3.16371 55.6391 2.61058 55.124 1.95689 55.1469C1.30014 55.1682 0.78511 55.7183 0.807967 56.375C0.960343 60.954 1.46319 65.2799 2.29974 69.2326C3.04029 72.7312 6.16706 75.2713 9.73115 75.2713H15.8902C18.2063 75.2713 20.3091 74.2458 21.7156 72.5559C22.4668 74.5566 23.4786 76.4126 24.7296 78.0522C24.9551 78.3463 25.3041 78.52 25.6743 78.52H48.1179C48.4882 78.52 48.8387 78.3463 49.0626 78.0522C49.4253 77.5783 49.7666 77.0846 50.0881 76.5772H60.3142C60.9709 76.5772 61.5042 76.0454 61.5042 75.3871V65.5679L64.3278 45.1708C64.4177 44.5201 63.9636 43.9198 63.3129 43.8299C62.6608 43.74 62.0619 44.194 61.972 44.8447L59.7138 61.1612H53.4968C53.4161 60.3795 53.2454 59.6085 52.9696 58.8725C52.1224 56.6143 50.3883 54.833 48.2139 53.9035L48.1712 53.5911L45.209 32.1913C45.1984 32.1151 45.1923 32.0374 45.1892 31.9612C45.1892 31.9567 45.1892 31.9536 45.1892 31.949C45.1679 31.1795 45.5808 30.4862 46.1812 30.0306C46.6642 29.6649 47.2981 29.479 47.9 29.479H61.0303C61.873 29.479 62.6547 29.8203 63.1743 30.4161C63.6162 30.9235 63.8112 31.5544 63.7228 32.1898L62.6303 40.0844C62.5404 40.7351 62.9945 41.3355 63.6451 41.4254C64.2958 41.5153 64.8961 41.0612 64.986 40.4105L66.0786 32.5144C66.2614 31.1872 65.8668 29.8859 64.9662 28.8527ZM23.9083 7.54438C23.3597 7.54438 22.6786 7.60685 22.2839 8.04113C21.9746 8.38093 21.9381 8.85787 21.9381 9.29519C21.9381 9.99612 21.5266 10.4853 21.1564 10.4853C20.7861 10.4853 20.3747 9.99612 20.3747 9.29519C20.3747 5.70214 22.5887 5.1673 23.9083 5.1673H31.0868C32.1961 5.1673 33.348 5.09721 34.4497 4.8595C35.399 4.65379 36.4611 4.34904 37.159 3.63591C37.4134 3.37535 37.5369 2.88165 37.9803 2.88165C38.0595 2.88165 38.1372 2.90298 38.218 2.94565C38.6386 3.17116 38.9189 3.93762 38.6645 4.62636C38.4603 5.18101 37.575 6.74897 34.0474 7.328C34.0383 7.32953 34.0307 7.32953 34.0215 7.33105C33.0524 7.48952 32.0681 7.5459 31.0868 7.5459L23.9083 7.54438ZM33.0235 9.84527V12.102H30.0963V9.92298C30.0994 9.97479 33.0235 9.86965 33.0235 9.84527ZM27.9326 14.4806H35.1872C36.711 14.4806 37.9513 15.7209 37.9513 17.2447V17.4413H25.1684V17.2447C25.1684 15.7209 26.4088 14.4806 27.9326 14.4806ZM8.78946 28.2036V28.1975C8.78946 27.5042 9.35326 26.9404 10.0466 26.9404H15.5733C15.6007 26.9404 15.6266 26.9435 15.6525 26.945C15.6586 26.945 15.6632 26.9465 15.6678 26.9465C17.062 27.0486 16.8304 28.6714 16.8304 29.6466C16.8304 30.8306 16.8304 32.0146 16.8304 33.1985C16.8304 33.4439 16.8304 33.6877 16.8304 33.933C16.5241 33.8766 16.2117 33.8477 15.8994 33.8477C15.8994 33.8477 9.72201 33.8477 9.71896 33.8477C9.43097 33.8477 9.09422 33.9315 8.79099 33.9223C8.70108 32.0283 8.78946 30.1022 8.78946 28.2036ZM18.6239 40.0098C18.6239 39.6639 16.262 39.5846 15.9268 39.5846H9.69458C8.78184 39.5846 7.86606 39.7294 6.99751 40.0098V38.9492C6.99751 37.4788 8.25005 36.2247 9.72201 36.2247H15.9024C16.7969 36.2247 17.6608 36.688 18.1606 37.4285C18.6818 38.2011 18.6239 39.1214 18.6239 40.0098ZM51.9228 73.0725C51.941 73.0131 51.9548 72.9674 51.9654 72.9384C52.3784 71.7712 52.7471 70.5827 53.0168 69.3728C53.4435 67.462 53.6522 65.4948 53.6294 63.5368H59.1256V74.194C59.1256 74.194 51.391 74.194 51.3879 74.194C51.5921 74.1955 51.8176 73.4199 51.9228 73.0725ZM50.6458 59.4835H45.0292C44.3725 59.4835 43.8392 60.0153 43.8392 60.6736C43.8392 61.3319 44.371 61.8637 45.0292 61.8637H51.17C51.1746 61.9139 51.1776 61.9657 51.1822 62.016C51.5525 66.9439 50.4097 72.082 47.5175 76.1398H26.2762C24.818 74.0949 23.762 71.695 23.151 69.1046C22.5948 66.7443 22.4211 64.2804 22.6222 61.8637H40.2705C40.9273 61.8637 41.4606 61.3319 41.4606 60.6736C41.4606 60.0153 40.9288 59.4835 40.2705 59.4835H23.1434C23.4512 58.7536 23.8961 58.0847 24.4629 57.5057C25.65 56.2928 27.3459 55.5705 29.0632 55.5705H44.7291C45.273 55.5705 45.8094 55.6406 46.326 55.7762C48.2307 56.2714 49.8657 57.6337 50.6458 59.4835ZM46.1751 27.3808C46.1751 27.3732 44.7565 28.1168 44.6209 28.2234C42.2864 30.084 42.8883 32.8024 43.2434 35.3699L45.718 53.2467C45.7104 53.2452 45.7027 53.2452 45.6936 53.2452C45.558 53.23 45.4208 53.2193 45.2837 53.2102C45.2532 53.2087 45.2243 53.2056 45.1938 53.2041C45.0399 53.1965 44.8845 53.1904 44.7275 53.1904H29.0632C28.3089 53.1904 27.5562 53.2879 26.8263 53.4784C26.4713 53.5713 26.1208 53.6856 25.781 53.8197C25.656 53.87 24.8622 54.1458 24.8606 54.2494C24.8637 53.9843 24.8637 53.7222 24.8637 53.4601C24.8637 51.5554 24.8012 49.6476 24.6778 47.7901C24.5879 46.4355 24.1734 45.0992 23.4893 43.9274C23.1784 43.3956 22.8112 42.8958 22.3967 42.4402C22.1819 42.204 21.9548 41.98 21.7156 41.7697C21.6257 41.6905 21.0025 41.2882 21.0025 41.2044V38.9477C21.0025 37.4803 20.3396 36.0251 19.2105 35.0652V28.196C19.2105 28.1107 19.2059 28.0269 19.1998 27.9431C19.1983 27.9263 19.1968 27.908 19.1953 27.8913C19.0795 26.5031 18.182 25.3344 16.9447 24.8285V24.4552C16.9447 21.8998 19.0246 19.8199 21.58 19.8199H41.5383C44.0936 19.8199 46.1736 21.8998 46.1736 24.4552C46.1751 24.4567 46.1751 27.3808 46.1751 27.3808Z" fill="#7A9CA5"/>
</svg>
